<?xml version="1.0" encoding="UTF-8" standalone="no"?>
<!-- Created with Inkscape (http://www.inkscape.org/) -->

<svg
   xmlns:dc="http://purl.org/dc/elements/1.1/"
   xmlns:cc="http://creativecommons.org/ns#"
   xmlns:rdf="http://www.w3.org/1999/02/22-rdf-syntax-ns#"
   xmlns:svg="http://www.w3.org/2000/svg"
   xmlns="http://www.w3.org/2000/svg"
   xmlns:sodipodi="http://sodipodi.sourceforge.net/DTD/sodipodi-0.dtd"
   xmlns:inkscape="http://www.inkscape.org/namespaces/inkscape"
   width="160"
   height="64"
   id="svg2"
   version="1.1"
   inkscape:version="0.48.4 r9939"
   sodipodi:docname="logo.svg">
  <defs
     id="defs4" />
  <sodipodi:namedview
     id="base"
     pagecolor="#ffffff"
     bordercolor="#666666"
     borderopacity="1.0"
     inkscape:pageopacity="0.0"
     inkscape:pageshadow="2"
     inkscape:zoom="2.8284271"
     inkscape:cx="125.65564"
     inkscape:cy="13.10026"
     inkscape:document-units="px"
     inkscape:current-layer="g3029"
     showgrid="false"
     inkscape:window-width="1301"
     inkscape:window-height="744"
     inkscape:window-x="65"
     inkscape:window-y="24"
     inkscape:window-maximized="1" />
  <metadata
     id="metadata7">
    <rdf:RDF>
      <cc:Work
         rdf:about="">
        <dc:format>image/svg+xml</dc:format>
        <dc:type
           rdf:resource="http://purl.org/dc/dcmitype/StillImage" />
        <dc:title></dc:title>
      </cc:Work>
    </rdf:RDF>
  </metadata>
  <g
     inkscape:label="Layer 1"
     inkscape:groupmode="layer"
     id="layer1"
     transform="translate(0,-988.36218)">
    <g
       id="g3029"
       transform="translate(9.682125,-1.00901)">
      <path
         id="path3002"
         d="m 12.911878,1005.657 c -0.511541,0 -0.922803,0.1735 -1.271573,0.5223 -0.348777,0.3255 -0.522257,0.7595 -0.522253,1.2943 l 0,23.6149 c -4e-6,0.5115 0.173476,0.9455 0.522253,1.2942 0.34877,0.3488 0.760032,0.5224 1.271573,0.5224 0.534781,0 0.96875,-0.1736 1.294278,-0.5224 0.348767,-0.3487 0.522247,-0.7827 0.522253,-1.2942 l 0,-23.6149 c -6e-6,-0.5348 -0.173486,-0.9688 -0.522253,-1.2943 -0.325528,-0.3488 -0.759497,-0.5223 -1.294278,-0.5223 z"
         style="font-size:48px;font-style:normal;font-variant:normal;font-weight:bold;font-stretch:normal;line-height:125%;letter-spacing:0px;word-spacing:0px;fill:#20a0ff;fill-opacity:0.94117647;stroke:none;font-family:Comfortaa;-inkscape-font-specification:Comfortaa Bold"
         inkscape:connector-curvature="0" />
      <path
         id="path3004"
         d="m 22.789271,1013.7861 c -0.267385,0 -0.511536,0.055 -0.726614,0.1362 -0.215077,0.081 -0.404894,0.2006 -0.567666,0.3633 -0.0041,0.01 0.004,0.019 0,0.022 -0.156726,0.1601 -0.283951,0.3353 -0.363306,0.545 -0.0027,0.01 0.0027,0.016 0,0.022 -0.07639,0.2099 -0.136229,0.4448 -0.13624,0.7039 l 0,8.5604 c -3e-6,1.8834 0.369116,3.5106 1.089919,4.8592 0.720796,1.3254 1.718434,2.3452 2.997278,3.0427 1.27883,0.6976 2.7326,1.0446 4.33697,1.0446 0.180566,0 0.345052,-0.013 0.522253,-0.022 0.179985,0.01 0.361502,0.022 0.54496,0.022 1.60437,0 3.058139,-0.347 4.336969,-1.0446 1.278845,-0.6975 2.276483,-1.7173 2.997278,-3.0427 0.720803,-1.3486 1.067216,-2.9758 1.067213,-4.8592 l 0,-8.5604 c 10e-7,-0.2635 -0.02723,-0.5125 -0.113533,-0.7266 -0.07916,-0.2092 -0.207142,-0.3853 -0.363307,-0.545 -0.0044,-0.01 0.0045,-0.018 0,-0.022 -0.162771,-0.1627 -0.352588,-0.2819 -0.567666,-0.3633 -0.220026,-0.092 -0.463535,-0.1362 -0.726612,-0.1362 -0.127883,0 -0.247049,0.023 -0.363307,0.045 -0.117713,0.02 -0.233061,0.05 -0.3406,0.091 -0.215077,0.081 -0.415995,0.2006 -0.590373,0.3633 -0.16277,0.1627 -0.281926,0.3526 -0.363306,0.5676 -0.0025,0.01 0.0024,0.016 0,0.022 -0.0764,0.2099 -0.113542,0.4448 -0.113534,0.7039 l 0,8.5604 c 7e-6,1.8834 -0.498812,3.315 -1.498638,4.2916 -0.956844,0.8916 -2.220244,1.3728 -3.746597,1.4305 -0.10836,0 -0.212262,0.01 -0.317894,0 -1.526352,-0.057 -2.767046,-0.5389 -3.72389,-1.4305 -0.999826,-0.9766 -1.498645,-2.4082 -1.498639,-4.2916 l 0,-8.5604 c -1e-6,-0.1279 -8.56e-4,-0.2698 -0.0227,-0.386 -0.06103,-0.3618 -0.209978,-0.6641 -0.454133,-0.9083 -0.174377,-0.1628 -0.375296,-0.2819 -0.590373,-0.3633 -0.0067,0 -0.01597,0 -0.0227,0 -0.104633,-0.044 -0.201636,-0.069 -0.317893,-0.091 -0.117714,-0.021 -0.235419,-0.045 -0.363306,-0.045 z"
         style="font-size:48px;font-style:normal;font-variant:normal;font-weight:bold;font-stretch:normal;line-height:125%;letter-spacing:0px;word-spacing:0px;fill:#20a0ff;fill-opacity:0.94117647;stroke:none;font-family:Comfortaa;-inkscape-font-specification:Comfortaa Bold"
         inkscape:connector-curvature="0" />
      <path
         id="path3006"
         d="m 51.921902,1013.6498 c -2.022868,0 -3.649566,0.6729 -4.88193,1.9982 -1.255557,1.3253 -1.884623,3.1688 -1.884652,5.5405 l 0,9.9681 c 2.9e-5,0.5115 0.174053,0.9456 0.499547,1.2943 0.08139,0.081 0.15531,0.1433 0.249773,0.2044 0.0051,0 0.01751,0 0.0227,0 0.28019,0.1761 0.62837,0.2952 1.021799,0.2952 0.511564,0 0.922827,-0.1741 1.271572,-0.4996 0.325552,-0.3487 0.499576,-0.7828 0.499547,-1.2943 l 0,-9.8319 c 0,-0.046 -9.43e-4,-0.091 0,-0.1362 2e-6,-0.113 0.01814,-0.2096 0.0227,-0.318 0.0011,-0.015 -0.0012,-0.031 0,-0.045 0.08745,-1.0783 0.468684,-1.9748 1.135333,-2.7021 0.760973,-0.8057 1.713405,-1.2414 2.883744,-1.2716 1.14568,0.032 2.101623,0.4675 2.861038,1.2716 0.767322,0.8371 1.158057,1.8996 1.158039,3.2017 l 0,9.832 c 1.8e-5,0.5114 0.151336,0.9455 0.476839,1.2942 0.172902,0.1729 0.381158,0.2822 0.61308,0.3634 0.108245,0.038 0.219497,0.073 0.3406,0.091 0.117713,0.021 0.258124,0.045 0.386013,0.045 0.11105,0 0.214668,-0.027 0.317893,-0.045 0.01504,0 0.03057,0 0.04542,0 0.101951,-0.021 0.201034,-0.055 0.295186,-0.091 0.225978,-0.079 0.42043,-0.1972 0.590373,-0.3634 0.0045,-0.01 0.01827,0.01 0.0227,0 0.325505,-0.3487 0.499528,-0.7828 0.499546,-1.2942 l 0,-9.832 c -1.8e-5,-1.3021 0.390718,-2.3646 1.15804,-3.2017 0.760963,-0.8057 1.712233,-1.2414 2.861037,-1.2716 1.160125,0.035 2.127698,0.4711 2.883746,1.2716 0.666648,0.7273 1.047881,1.6238 1.135332,2.7021 0.006,0.1231 0.0227,0.2344 0.0227,0.3634 9.42e-4,0.045 0,0.09 0,0.1362 l 0,9.832 c -2.9e-5,0.5114 0.151288,0.9455 0.476839,1.2942 0.08719,0.081 0.175118,0.1434 0.272481,0.2044 0.283381,0.183 0.620715,0.2952 1.021799,0.2952 0.127885,0 0.245595,-0.025 0.363306,-0.045 0.007,0 0.01571,0 0.0227,0 0.109792,-0.021 0.217048,-0.052 0.317894,-0.091 0.0068,0 0.01601,0 0.0227,0 0.207802,-0.081 0.398262,-0.2052 0.567667,-0.3634 0.325523,-0.3487 0.476839,-0.7827 0.476839,-1.2942 l 0,-9.9682 c -2.9e-5,-2.3717 -0.629094,-4.2151 -1.884651,-5.5405 -1.232365,-1.3253 -2.859062,-1.9981 -4.881931,-1.9981 -0.319714,0 -0.625792,0.014 -0.930972,0.045 -0.0076,0 -0.01507,0 -0.0227,0 -0.235424,-0.022 -0.459761,-0.045 -0.703906,-0.045 -1.185819,0 -2.248853,0.2383 -3.178932,0.7266 -0.690566,0.3368 -1.28626,0.8058 -1.793824,1.3623 -0.509694,-0.5615 -1.098711,-1.0233 -1.793826,-1.3623 -0.930078,-0.4883 -1.993112,-0.7266 -3.17893,-0.7266 -0.244146,0 -0.49119,0.023 -0.726614,0.045 -0.30518,-0.031 -0.633963,-0.045 -0.953679,-0.045 z"
         style="font-size:48px;font-style:normal;font-variant:normal;font-weight:bold;font-stretch:normal;line-height:125%;letter-spacing:0px;word-spacing:0px;fill:#20a0ff;fill-opacity:0.94117647;stroke:none;font-family:Comfortaa;-inkscape-font-specification:Comfortaa Bold"
         inkscape:connector-curvature="0" />
      <path
         d="m 78.20712,1015.6059 c 0,-0.5348 0.162754,-0.965 0.488284,-1.2905 0.348768,-0.3255 0.778918,-0.4883 1.290466,-0.4883 0.534774,0 0.964932,0.1628 1.290458,0.4883 0.325516,0.3255 0.488279,0.7557 0.488287,1.2905 l 0,15.5204 c -8e-6,0.5115 -0.162771,0.9417 -0.488287,1.2904 -0.325526,0.3256 -0.755684,0.4884 -1.290458,0.4884 -0.511548,0 -0.941698,-0.1628 -1.290466,-0.4884 -0.32553,-0.3487 -0.488284,-0.7789 -0.488284,-1.2904 l 0,-15.5204 m 1.77875,-9.4867 c 0.627781,0 1.162573,0.2325 1.604357,0.6975 0.465027,0.4418 0.697545,0.9766 0.697554,1.6044 -9e-6,0.6278 -0.232527,1.1742 -0.697554,1.6392 -0.441784,0.4418 -0.976576,0.6627 -1.604357,0.6627 -0.627807,0 -1.174216,-0.2209 -1.639241,-0.6627 -0.441781,-0.465 -0.66267,-1.0114 -0.66267,-1.6392 0,-0.6278 0.220889,-1.1626 0.66267,-1.6044 0.465025,-0.465 1.011434,-0.6975 1.639241,-0.6975"
         style="font-size:48px;font-style:normal;font-variant:normal;font-weight:bold;font-stretch:normal;line-height:125%;letter-spacing:0px;word-spacing:0px;fill:#20a0ff;fill-opacity:0.94117647;stroke:none;font-family:Comfortaa;-inkscape-font-specification:Comfortaa Bold"
         id="path3008"
         inkscape:connector-curvature="0" />
      <path
         inkscape:connector-curvature="0"
         style="font-size:48px;font-style:normal;font-variant:normal;font-weight:bold;font-stretch:normal;line-height:125%;letter-spacing:0px;word-spacing:0px;fill:#20a0ff;fill-opacity:0.94117647;stroke:none;font-family:Comfortaa;-inkscape-font-specification:Comfortaa Bold"
         d="m 102.71668,1013.7861 c -0.26739,0 -0.51153,0.055 -0.72662,0.1362 -0.21507,0.081 -0.40489,0.2006 -0.56766,0.3633 -0.004,0.01 0.003,0.019 0,0.022 -0.15672,0.1601 -0.28396,0.3353 -0.36331,0.545 -0.003,0.01 0.003,0.016 0,0.022 -0.0764,0.2099 -0.13623,0.4448 -0.13624,0.7039 l 0,8.5604 c 0,1.8834 0.36912,3.5106 1.08992,4.8592 0.72079,1.3254 1.71844,2.3452 2.99728,3.0427 1.27883,0.6976 2.7326,1.0446 4.33697,1.0446 0.18057,0 0.34505,-0.013 0.52225,-0.022 0.17998,0.01 0.36151,0.022 0.54496,0.022 1.60437,0 3.05814,-0.347 4.33697,-1.0446 1.27885,-0.6975 2.27649,-1.7173 2.99728,-3.0427 0.7208,-1.3486 1.06721,-2.9758 1.06721,-4.8592 l 0,-8.5604 c 0,-0.2635 -0.0272,-0.5125 -0.11353,-0.7266 -0.0792,-0.2092 -0.20714,-0.3853 -0.36331,-0.545 -0.004,-0.01 0.004,-0.018 0,-0.022 -0.16276,-0.1627 -0.35259,-0.2819 -0.56766,-0.3633 -0.22003,-0.092 -0.46354,-0.1362 -0.72662,-0.1362 -0.12788,0 -0.24705,0.023 -0.36331,0.045 -0.1177,0.02 -0.23305,0.05 -0.34059,0.091 -0.21508,0.081 -0.416,0.2006 -0.59038,0.3633 -0.16277,0.1627 -0.28192,0.3526 -0.3633,0.5676 -0.003,0.01 0.003,0.016 0,0.022 -0.0764,0.2099 -0.11354,0.4448 -0.11354,0.7039 l 0,8.5604 c 1e-5,1.8834 -0.49881,3.315 -1.49863,4.2916 -0.95685,0.8916 -2.22025,1.3728 -3.7466,1.4305 -0.10836,0 -0.21226,0.01 -0.31789,0 -1.52635,-0.057 -2.76704,-0.5389 -3.7239,-1.4305 -0.99982,-0.9766 -1.49864,-2.4082 -1.49863,-4.2916 l 0,-8.5604 c 0,-0.1279 -7.3e-4,-0.2698 -0.0227,-0.386 -0.061,-0.3618 -0.20997,-0.6641 -0.45413,-0.9083 -0.17438,-0.1628 -0.3753,-0.2819 -0.59037,-0.3633 -0.007,0 -0.016,0 -0.0227,0 -0.10463,-0.044 -0.20164,-0.069 -0.31789,-0.091 -0.11771,-0.021 -0.23542,-0.045 -0.3633,-0.045 z"
         id="path3938" />
      <path
         inkscape:connector-curvature="0"
         id="path3940"
         style="font-size:48px;font-style:normal;font-variant:normal;font-weight:bold;font-stretch:normal;line-height:125%;letter-spacing:0px;word-spacing:0px;fill:#20a0ff;fill-opacity:0.94117647;stroke:none;font-family:Comfortaa;-inkscape-font-specification:Comfortaa Bold"
         d="m 125.43704,1015.6059 c 0,-0.5348 0.16274,-0.965 0.48827,-1.2905 0.34877,-0.3255 0.77892,-0.4883 1.29047,-0.4883 0.53478,0 0.96495,0.1628 1.29048,0.4883 0.32552,0.3255 0.48826,0.7557 0.48826,1.2905 l 0,15.5204 c -1e-5,0.5115 -0.16274,0.9417 -0.48826,1.2904 -0.32553,0.3256 -0.75568,0.4884 -1.29048,0.4884 -0.51155,0 -0.94169,-0.1628 -1.29047,-0.4884 -0.32554,-0.3487 -0.48827,-0.7789 -0.48827,-1.2904 l 0,-15.5204 m 1.77874,-9.4867 c 0.62779,0 1.16258,0.2325 1.60437,0.6975 0.46503,0.4418 0.69754,0.9766 0.69755,1.6044 -1e-5,0.6278 -0.23251,1.1742 -0.69755,1.6392 -0.44179,0.4418 -0.97658,0.6627 -1.60437,0.6627 -0.62779,0 -1.1742,-0.2209 -1.63923,-0.6627 -0.44178,-0.465 -0.66268,-1.0114 -0.66268,-1.6392 0,-0.6278 0.2209,-1.1626 0.66268,-1.6044 0.46503,-0.465 1.01144,-0.6975 1.63923,-0.6975" />
    </g>
  </g>
</svg>
