<?xml version="1.0" encoding="UTF-8" standalone="no"?>
<!-- Created with Inkscape (http://www.inkscape.org/) -->

<svg
   xmlns:dc="http://purl.org/dc/elements/1.1/"
   xmlns:cc="http://creativecommons.org/ns#"
   xmlns:rdf="http://www.w3.org/1999/02/22-rdf-syntax-ns#"
   xmlns:svg="http://www.w3.org/2000/svg"
   xmlns="http://www.w3.org/2000/svg"
   version="1.1"
   width="200"
   height="64"
   id="svg2">
  <defs
     id="defs4" />
  <metadata
     id="metadata7">
    <rdf:RDF>
      <cc:Work
         rdf:about="">
        <dc:format>image/svg+xml</dc:format>
        <dc:type
           rdf:resource="http://purl.org/dc/dcmitype/StillImage" />
        <dc:title></dc:title>
      </cc:Work>
    </rdf:RDF>
  </metadata>
  <g
     transform="translate(0,-988.36218)"
     id="layer1">
    <g
       transform="translate(9.682125,-1.00901)"
       id="g3029">
      <path
         d="m 9.53125,13.875 c -0.704007,0 -1.270006,0.23875 -1.75,0.71875 C 7.301245,15.04175 7.062495,15.639 7.0625,16.375 l 0,32.5 c -5e-6,0.704 0.238745,1.30125 0.71875,1.78125 0.479994,0.48 1.045993,0.71875 1.75,0.71875 0.735992,0 1.333241,-0.23875 1.78125,-0.71875 0.47999,-0.48 0.71874,-1.07725 0.71875,-1.78125 l 0,-32.5 C 12.03124,15.639 11.79249,15.04175 11.3125,14.59375 10.864491,14.11375 10.267242,13.875 9.53125,13.875 z"
         transform="translate(0,988.36218)"
         id="path3002"
         style="font-size:48px;font-style:normal;font-variant:normal;font-weight:bold;font-stretch:normal;line-height:125%;letter-spacing:0px;word-spacing:0px;fill:#20a0ff;fill-opacity:0.94117647;stroke:none;font-family:Comfortaa;-inkscape-font-specification:Comfortaa Bold" />
      <path
         d="m 23.125,25.0625 c -0.367987,0 -0.704,0.0755 -1,0.1875 -0.296,0.112 -0.557236,0.276 -0.78125,0.5 -0.0056,0.0056 0.0055,0.02563 0,0.03125 -0.215694,0.220173 -0.390787,0.461367 -0.5,0.75 -0.0037,0.0091 0.0036,0.02212 0,0.03125 -0.105138,0.288959 -0.187486,0.612202 -0.1875,0.96875 l 0,11.78125 c -4e-6,2.592 0.507996,4.8315 1.5,6.6875 0.991994,1.824 2.364992,3.2275 4.125,4.1875 1.759989,0.96 3.760737,1.4375 5.96875,1.4375 0.248504,0 0.474877,-0.01813 0.71875,-0.03125 0.247703,0.01355 0.497516,0.03125 0.75,0.03125 2.208013,0 4.208761,-0.4775 5.96875,-1.4375 1.760008,-0.96 3.133006,-2.3635 4.125,-4.1875 0.992004,-1.856 1.468754,-4.0955 1.46875,-6.6875 l 0,-11.78125 c 2e-6,-0.362495 -0.03747,-0.705378 -0.15625,-1 -0.10895,-0.287941 -0.285079,-0.530192 -0.5,-0.75 -0.006,-0.0062 0.0061,-0.02515 0,-0.03125 -0.224014,-0.224 -0.48525,-0.388 -0.78125,-0.5 -0.302811,-0.126955 -0.63794,-0.1875 -1,-0.1875 -0.175998,0 -0.340001,0.0325 -0.5,0.0625 -0.162003,0.028 -0.32075,0.069 -0.46875,0.125 -0.296,0.112 -0.572513,0.276 -0.8125,0.5 -0.224012,0.224 -0.388,0.48525 -0.5,0.78125 -0.0034,0.008 0.0033,0.02322 0,0.03125 -0.105137,0.288959 -0.156262,0.612202 -0.15625,0.96875 l 0,11.78125 c 9e-6,2.592 -0.686491,4.56225 -2.0625,5.90625 -1.316855,1.227079 -3.055608,1.889326 -5.15625,1.96875 -0.14913,0 -0.292124,0.0055 -0.4375,0 -2.100642,-0.07942 -3.808145,-0.741671 -5.125,-1.96875 -1.376009,-1.344 -2.062509,-3.31425 -2.0625,-5.90625 l 0,-11.78125 C 25.562498,27.35525 25.5613,27.16 25.53125,27 c -0.08399,-0.498 -0.288982,-0.914 -0.625,-1.25 -0.239987,-0.224 -0.5165,-0.388 -0.8125,-0.5 -0.0092,-0.0035 -0.02198,0.0034 -0.03125,0 -0.144,-0.06 -0.277501,-0.095 -0.4375,-0.125 -0.162003,-0.028 -0.323994,-0.0625 -0.5,-0.0625 z"
         transform="translate(0,988.36218)"
         id="path3004"
         style="font-size:48px;font-style:normal;font-variant:normal;font-weight:bold;font-stretch:normal;line-height:125%;letter-spacing:0px;word-spacing:0px;fill:#20a0ff;fill-opacity:0.94117647;stroke:none;font-family:Comfortaa;-inkscape-font-specification:Comfortaa Bold" />
      <path
         d="m 63.21875,24.875 c -2.78397,0 -5.02271,0.926 -6.71875,2.75 -1.72796,1.824 -2.59371,4.361 -2.59375,7.625 l 0,13.71875 c 4e-5,0.704 0.23954,1.30125 0.6875,1.78125 0.11201,0.112 0.213745,0.19725 0.34375,0.28125 0.0071,0.0046 0.0241,-0.0045 0.03125,0 0.385612,0.242491 0.864794,0.40625 1.40625,0.40625 0.70404,0 1.27004,-0.2395 1.75,-0.6875 0.44804,-0.48 0.68754,-1.07725 0.6875,-1.78125 l 0,-13.53125 c 0,-0.06385 -0.0013,-0.124457 0,-0.1875 3e-6,-0.155307 0.02497,-0.28827 0.03125,-0.4375 0.0015,-0.02081 -0.0017,-0.04179 0,-0.0625 0.120355,-1.483965 0.645026,-2.717879 1.5625,-3.71875 1.04729,-1.108908 2.358072,-1.70852 3.96875,-1.75 1.576741,0.04356 2.892356,0.643348 3.9375,1.75 1.056026,1.152 1.593775,2.61425 1.59375,4.40625 l 0,13.53125 c 2.5e-5,0.704 0.208275,1.30125 0.65625,1.78125 0.237955,0.237942 0.524567,0.388434 0.84375,0.5 0.148972,0.05207 0.302083,0.100458 0.46875,0.125 0.162003,0.028 0.355244,0.0625 0.53125,0.0625 0.152832,-0.003 0.295436,-0.03795 0.4375,-0.0625 0.0207,-0.003 0.04207,0.0034 0.0625,0 0.14031,-0.02757 0.276673,-0.07597 0.40625,-0.125 0.311001,-0.108706 0.578616,-0.271313 0.8125,-0.5 0.0062,-0.006 0.02515,0.0061 0.03125,0 0.447975,-0.48 0.687475,-1.07725 0.6875,-1.78125 l 0,-13.53125 c -2.5e-5,-1.792 0.537724,-3.25425 1.59375,-4.40625 1.047275,-1.108908 2.356459,-1.70852 3.9375,-1.75 1.59662,0.04808 2.928241,0.648274 3.96875,1.75 0.917474,1.000871 1.442146,2.234785 1.5625,3.71875 0.0082,0.169458 0.03125,0.322614 0.03125,0.5 0.0013,0.06304 0,0.123645 0,0.1875 l 0,13.53125 c -4e-5,0.704 0.20821,1.30125 0.65625,1.78125 0.11999,0.112 0.241005,0.19725 0.375,0.28125 0.390004,0.252 0.854258,0.40625 1.40625,0.40625 0.176002,0 0.338,-0.0345 0.5,-0.0625 0.0097,-0.0015 0.02162,0.0016 0.03125,0 0.1511,-0.02789 0.298712,-0.07249 0.4375,-0.125 0.0093,-0.0034 0.02204,0.0035 0.03125,0 0.285987,-0.111909 0.548107,-0.2824 0.78125,-0.5 0.448,-0.48 0.65625,-1.07725 0.65625,-1.78125 l 0,-13.71875 c -4e-5,-3.264 -0.86579,-5.801 -2.59375,-7.625 -1.69604,-1.824 -3.93478,-2.75 -6.71875,-2.75 -0.440008,0 -0.861246,0.0205 -1.28125,0.0625 -0.01052,0.0011 -0.02074,-0.0011 -0.03125,0 -0.324002,-0.03 -0.632746,-0.0625 -0.96875,-0.0625 -1.631982,0 -3.094981,0.328 -4.375,1 -0.950392,0.463614 -1.770215,1.10913 -2.46875,1.875 -0.701466,-0.772917 -1.512099,-1.408333 -2.46875,-1.875 -1.280019,-0.672 -2.743018,-1 -4.375,-1 -0.336004,0 -0.675998,0.0325 -1,0.0625 -0.420004,-0.042 -0.872492,-0.0625 -1.3125,-0.0625 z"
         transform="translate(0,988.36218)"
         id="path3006"
         style="font-size:48px;font-style:normal;font-variant:normal;font-weight:bold;font-stretch:normal;line-height:125%;letter-spacing:0px;word-spacing:0px;fill:#20a0ff;fill-opacity:0.94117647;stroke:none;font-family:Comfortaa;-inkscape-font-specification:Comfortaa Bold" />
      <path
         d="m 99.39375,1015.9292 c 0,-0.736 0.22399,-1.328 0.672,-1.776 0.47999,-0.448 1.07199,-0.672 1.776,-0.672 0.73599,0 1.32799,0.224 1.776,0.672 0.44799,0.448 0.67199,1.04 0.672,1.776 l 0,21.36 c -1e-5,0.704 -0.22401,1.296 -0.672,1.776 -0.44801,0.448 -1.04001,0.672 -1.776,0.672 -0.70401,0 -1.29601,-0.224 -1.776,-0.672 -0.44801,-0.48 -0.672,-1.072 -0.672,-1.776 l 0,-21.36 m 2.448,-13.056 c 0.86399,0 1.59999,0.32 2.208,0.96 0.63999,0.608 0.95999,1.344 0.96,2.208 -1e-5,0.864 -0.32001,1.616 -0.96,2.256 -0.60801,0.608 -1.34401,0.912 -2.208,0.912 -0.86401,0 -1.61601,-0.304 -2.256,-0.912 -0.608,-0.64 -0.912,-1.392 -0.912,-2.256 0,-0.864 0.304,-1.6 0.912,-2.208 0.63999,-0.64 1.39199,-0.96 2.256,-0.96"
         id="path3008"
         style="font-size:48px;font-style:normal;font-variant:normal;font-weight:bold;font-stretch:normal;line-height:125%;letter-spacing:0px;word-spacing:0px;fill:#20a0ff;fill-opacity:0.94117647;stroke:none;font-family:Comfortaa;-inkscape-font-specification:Comfortaa Bold" />
      <path
         d="m 127.9875,1004.7452 c 0,-0.736 0.23999,-1.328 0.72,-1.776 0.47999,-0.48 1.07199,-0.72 1.776,-0.72 0.73599,0 1.32799,0.24 1.776,0.72 0.47999,0.448 0.71999,1.04 0.72,1.776 l 0,22.416 c -1e-5,1.696 0.44799,3.216 1.344,4.56 0.92799,1.344 2.19199,2.4 3.792,3.168 1.63198,0.736 3.48798,1.104 5.568,1.104 1.98398,0 3.75998,-0.368 5.328,-1.104 1.56797,-0.768 2.78397,-1.824 3.648,-3.168 0.89597,-1.344 1.34397,-2.864 1.344,-4.56 l 0,-22.416 c -3e-5,-0.736 0.23997,-1.328 0.72,-1.776 0.47997,-0.48 1.07197,-0.72 1.776,-0.72 0.70397,0 1.27997,0.24 1.728,0.72 0.47996,0.448 0.71996,1.04 0.72,1.776 l 0,22.416 c -4e-5,2.56 -0.65604,4.864 -1.968,6.912 -1.28003,2.016 -3.08803,3.6 -5.424,4.752 -2.30403,1.12 -4.92802,1.68 -7.872,1.68 -3.04002,0 -5.76001,-0.56 -8.16,-1.68 -2.36801,-1.152 -4.22401,-2.736 -5.568,-4.752 -1.31201,-2.016 -1.968,-4.32 -1.968,-6.912 l 0,-22.416"
         id="path3010"
         style="font-size:48px;font-style:normal;font-variant:normal;font-weight:bold;font-stretch:normal;line-height:125%;letter-spacing:0px;word-spacing:0px;fill:#20a0ff;fill-opacity:0.94117647;stroke:none;font-family:Comfortaa;-inkscape-font-specification:Comfortaa Bold" />
      <path
         d="m 168.58125,1004.7452 c 0,-0.736 0.23999,-1.328 0.72,-1.776 0.47999,-0.48 1.07199,-0.72 1.776,-0.72 0.73599,0 1.32799,0.24 1.776,0.72 0.47999,0.448 0.71999,1.04 0.72,1.776 l 0,32.496 c -1e-5,0.704 -0.24001,1.296 -0.72,1.776 -0.44801,0.48 -1.04001,0.72 -1.776,0.72 -0.70401,0 -1.29601,-0.24 -1.776,-0.72 -0.48001,-0.48 -0.72,-1.072 -0.72,-1.776 l 0,-32.496"
         id="path3012"
         style="font-size:48px;font-style:normal;font-variant:normal;font-weight:bold;font-stretch:normal;line-height:125%;letter-spacing:0px;word-spacing:0px;fill:#20a0ff;fill-opacity:0.94117647;stroke:none;font-family:Comfortaa;-inkscape-font-specification:Comfortaa Bold" />
    </g>
  </g>
</svg>
