<svg xmlns="http://www.w3.org/2000/svg" version="1.1" viewBox="0 0 200 64">
 <g transform="translate(0,-988.36218)">
  <g fill-opacity="0.94117647" fill="#20a0ff" transform="translate(9.682125,-1.00901)">
   <path d="m9.53,13.9c-0.704,0-1.27,0.239-1.75,0.719-0.48,0.4-0.72,1-0.72,1.8v32.5c-0.000005,0.704,0.239,1.3,0.719,1.78s1.05,0.719,1.75,0.719c0.736,0,1.33-0.239,1.78-0.719,0.48-0.48,0.719-1.08,0.719-1.78v-32.5c0-0.8-0.2-1.4-0.7-1.8-0.4-0.5-1-0.7-1.77-0.7z" transform="translate(0,988.36218)"/>
   <path d="m23.1,25.1c-0.368,0-0.704,0.0755-1,0.188s-0.557,0.276-0.781,0.5c-0.0056,0.0056,0.0055,0.0256,0,0.0312-0.216,0.22-0.391,0.461-0.5,0.75-0.0037,0.0091,0.0036,0.0221,0,0.0312-0.105,0.289-0.187,0.612-0.188,0.969v11.8c-0.000004,2.59,0.508,4.83,1.5,6.69,0.992,1.82,2.36,3.23,4.12,4.19s3.76,1.44,5.97,1.44c0.249,0,0.475-0.0181,0.719-0.0312,0.248,0.0136,0.498,0.0312,0.75,0.0312,2.21,0,4.21-0.478,5.97-1.44,1.76-0.96,3.13-2.36,4.12-4.19,0.992-1.86,1.47-4.1,1.47-6.69v-11.8c0.000002-0.362-0.0375-0.705-0.156-1-0.109-0.288-0.285-0.53-0.5-0.75-0.006-0.0062,0.0061-0.0252,0-0.0312-0.224-0.224-0.485-0.388-0.781-0.5-0.303-0.127-0.638-0.188-1-0.188-0.176,0-0.34,0.0325-0.5,0.0625-0.162,0.028-0.321,0.069-0.469,0.125-0.296,0.112-0.573,0.276-0.812,0.5-0.224,0.224-0.388,0.485-0.5,0.781-0.0034,0.008,0.0033,0.0232,0,0.0312-0.105,0.289-0.156,0.612-0.156,0.969v11.8c0.000009,2.59-0.686,4.56-2.06,5.91-1.32,1.23-3.06,1.89-5.16,1.97-0.149,0-0.292,0.0055-0.438,0-2.1-0.0794-3.81-0.742-5.12-1.97-1.38-1.34-2.06-3.31-2.06-5.91v-11.8c0.3-0.2,0.3-0.4,0.2-0.6-0.084-0.498-0.289-0.914-0.625-1.25-0.24-0.224-0.516-0.388-0.812-0.5-0.0092-0.0035-0.022,0.0034-0.0312,0-0.144-0.06-0.278-0.095-0.438-0.125-0.162-0.028-0.324-0.0625-0.5-0.0625z" transform="translate(0,988.36218)"/>
   <path d="m63.2,24.9c-2.78,0-5.02,0.926-6.72,2.75-1.73,1.82-2.59,4.36-2.59,7.62v13.7c0.00004,0.704,0.24,1.3,0.688,1.78,0.112,0.112,0.214,0.197,0.344,0.281,0.0071,0.0046,0.0241-0.0045,0.0312,0,0.386,0.242,0.865,0.406,1.41,0.406,0.704,0,1.27-0.24,1.75-0.688,0.448-0.48,0.688-1.08,0.688-1.78v-13.5c0-0.0638-0.0013-0.124,0-0.188,0.000003-0.155,0.025-0.288,0.0312-0.438,0.0015-0.0208-0.0017-0.0418,0-0.0625,0.12-1.48,0.645-2.72,1.56-3.72,1.05-1.11,2.36-1.71,3.97-1.75,1.58,0.0436,2.89,0.643,3.94,1.75,1.06,1.15,1.59,2.61,1.59,4.41v13.5c0.000025,0.704,0.208,1.3,0.656,1.78,0.238,0.238,0.525,0.388,0.844,0.5,0.149,0.0521,0.302,0.1,0.469,0.125,0.162,0.028,0.355,0.0625,0.531,0.0625,0.153-0.003,0.295-0.038,0.438-0.0625,0.0207-0.003,0.0421,0.0034,0.0625,0,0.14-0.0276,0.277-0.076,0.406-0.125,0.311-0.109,0.579-0.271,0.812-0.5,0.0062-0.006,0.0252,0.0061,0.0312,0,0.448-0.48,0.687-1.08,0.688-1.78v-13.5c-0.000025-1.79,0.538-3.25,1.59-4.41,1.05-1.11,2.36-1.71,3.94-1.75,1.6,0.0481,2.93,0.648,3.97,1.75,0.917,1,1.44,2.23,1.56,3.72,0.0082,0.169,0.0312,0.323,0.0312,0.5,0.0013,0.063,0,0.124,0,0.188v13.5c-0.00004,0.704,0.208,1.3,0.656,1.78,0.12,0.112,0.241,0.197,0.375,0.281,0.39,0.252,0.854,0.406,1.41,0.406,0.176,0,0.338-0.0345,0.5-0.0625,0.0097-0.0015,0.0216,0.0016,0.0312,0,0.151-0.0279,0.299-0.0725,0.438-0.125,0.0093-0.0034,0.022,0.0035,0.0312,0,0.286-0.112,0.548-0.282,0.781-0.5,0.448-0.48,0.656-1.08,0.656-1.78v-13.7c-0.00004-3.26-0.866-5.8-2.59-7.62-1.7-1.82-3.93-2.75-6.72-2.75-0.44,0-0.861,0.0205-1.28,0.0625-0.0105,0.0011-0.0207-0.0011-0.0312,0-0.324-0.03-0.633-0.0625-0.969-0.0625-1.63,0-3.09,0.328-4.38,1-0.95,0.464-1.77,1.11-2.47,1.88-0.701-0.773-1.51-1.41-2.47-1.88-1.28-0.672-2.74-1-4.38-1-0.336,0-0.676,0.0325-1,0.0625-0.42-0.042-0.872-0.0625-1.31-0.0625z" transform="translate(0,988.36218)"/>
   <path d="m99.4,1020c0-0.736,0.224-1.33,0.672-1.78,0.48-0.448,1.07-0.672,1.78-0.672,0.736,0,1.33,0.224,1.78,0.672,0.448,0.448,0.672,1.04,0.672,1.78v21.4c-0.00001,0.704-0.224,1.3-0.672,1.78-0.448,0.448-1.04,0.672-1.78,0.672-0.704,0-1.3-0.224-1.78-0.672-0.448-0.48-0.672-1.07-0.672-1.78v-21.4m2.45-13.1c0.864,0,1.6,0.32,2.21,0.96,0.64,0.608,0.96,1.34,0.96,2.21-0.00001,0.864-0.32,1.62-0.96,2.26-0.608,0.608-1.34,0.912-2.21,0.912-0.864,0-1.62-0.304-2.26-0.912-0.608-0.64-0.912-1.39-0.912-2.26,0-0.864,0.304-1.6,0.912-2.21,0.64-0.64,1.39-0.96,2.26-0.96"/>
   <path d="m128,1000c0-0.736,0.24-1.33,0.72-1.78,0.48-0.48,1.07-0.72,1.78-0.72,0.736,0,1.33,0.24,1.78,0.72,0.48,0.448,0.72,1.04,0.72,1.78v22.4c-0.00001,1.7,0.448,3.22,1.34,4.56,0.928,1.34,2.19,2.4,3.79,3.17,1.63,0.736,3.49,1.1,5.57,1.1,1.98,0,3.76-0.368,5.33-1.1,1.57-0.768,2.78-1.82,3.65-3.17,0.896-1.34,1.34-2.86,1.34-4.56v-22.4c-0.00003-0.736,0.24-1.33,0.72-1.78,0.48-0.48,1.07-0.72,1.78-0.72,0.704,0,1.28,0.24,1.73,0.72,0.48,0.448,0.72,1.04,0.72,1.78v22.4c-0.00004,2.56-0.656,4.86-1.97,6.91-1.28,2.02-3.09,3.6-5.42,4.75-2.3,1.12-4.93,1.68-7.87,1.68-3.04,0-5.76-0.56-8.16-1.68-2.37-1.15-4.22-2.74-5.57-4.75-1.31-2.02-1.97-4.32-1.97-6.91v-22.4"/>
   <path d="m169,1000c0-0.736,0.24-1.33,0.72-1.78,0.48-0.48,1.07-0.72,1.78-0.72,0.736,0,1.33,0.24,1.78,0.72,0.48,0.448,0.72,1.04,0.72,1.78v32.5c-0.00001,0.704-0.24,1.3-0.72,1.78-0.448,0.48-1.04,0.72-1.78,0.72-0.704,0-1.3-0.24-1.78-0.72s-0.72-1.07-0.72-1.78v-32.5"/>
  </g>
 </g>
</svg>
