<svg xmlns="http://www.w3.org/2000/svg" version="1.1" viewBox="0 0 160 64">
 <g transform="translate(0,-988.36218)">
  <g fill-opacity="0.94117647" fill="#20a0ff" transform="translate(9.682125,-1.00901)">
   <path d="m12.912,1005.7c-0.51154,0-0.9228,0.1735-1.2716,0.5223-0.34878,0.3255-0.52226,0.7595-0.52225,1.2943v23.615c-0.000004,0.5115,0.17348,0.9455,0.52225,1.2942,0.34877,0.3488,0.76003,0.5224,1.2716,0.5224,0.53478,0,0.96875-0.1736,1.2943-0.5224,0.34877-0.3487,0.52225-0.7827,0.52225-1.2942v-23.615c-0.000006-0.5348-0.17349-0.9688-0.52225-1.2943-0.32553-0.3488-0.7595-0.5223-1.2943-0.5223z"/>
   <path d="m22.789,1013.8c-0.26738,0-0.51154,0.055-0.72661,0.1362-0.21508,0.081-0.40489,0.2006-0.56767,0.3633-0.0041,0.01,0.004,0.019,0,0.022-0.15673,0.1601-0.28395,0.3353-0.36331,0.545-0.0027,0.01,0.0027,0.016,0,0.022-0.07639,0.2099-0.13623,0.4448-0.13624,0.7039v8.5604c-0.000003,1.8834,0.36912,3.5106,1.0899,4.8592,0.7208,1.3254,1.7184,2.3452,2.9973,3.0427,1.2788,0.6976,2.7326,1.0446,4.337,1.0446,0.18057,0,0.34505-0.013,0.52225-0.022,0.17998,0.01,0.3615,0.022,0.54496,0.022,1.6044,0,3.0581-0.347,4.337-1.0446,1.2788-0.6975,2.2765-1.7173,2.9973-3.0427,0.7208-1.3486,1.0672-2.9758,1.0672-4.8592v-8.5604c0.000001-0.2635-0.02723-0.5125-0.11353-0.7266-0.07916-0.2092-0.20714-0.3853-0.36331-0.545-0.0044-0.01,0.0045-0.018,0-0.022-0.16277-0.1627-0.35259-0.2819-0.56767-0.3633-0.22003-0.092-0.46354-0.1362-0.72661-0.1362-0.12788,0-0.24705,0.023-0.36331,0.045-0.11771,0.02-0.23306,0.05-0.3406,0.091-0.21508,0.081-0.416,0.2006-0.59037,0.3633-0.16277,0.1627-0.28193,0.3526-0.36331,0.5676-0.0025,0.01,0.0024,0.016,0,0.022-0.0764,0.2099-0.11354,0.4448-0.11353,0.7039v8.5604c0.000007,1.8834-0.49881,3.315-1.4986,4.2916-0.95684,0.8916-2.2202,1.3728-3.7466,1.4305-0.10836,0-0.21226,0.01-0.31789,0-1.5264-0.057-2.767-0.5389-3.7239-1.4305-0.99983-0.9766-1.4986-2.4082-1.4986-4.2916v-8.5604c-0.000001-0.1279-0.000856-0.2698-0.0227-0.386-0.06103-0.3618-0.20998-0.6641-0.45413-0.9083-0.17438-0.1628-0.3753-0.2819-0.59037-0.3633h-0.0227c-0.10463-0.044-0.20164-0.069-0.31789-0.091-0.11771-0.021-0.23542-0.045-0.36331-0.045z"/>
   <path d="m51.922,1013.6c-2.0229,0-3.6496,0.6729-4.8819,1.9982-1.2556,1.3253-1.8846,3.1688-1.8847,5.5405v9.9681c0.000029,0.5115,0.17405,0.9456,0.49955,1.2943,0.08139,0.081,0.15531,0.1433,0.24977,0.2044h0.0227c0.28019,0.1761,0.62837,0.2952,1.0218,0.2952,0.51156,0,0.92283-0.1741,1.2716-0.4996,0.32555-0.3487,0.49958-0.7828,0.49955-1.2943v-9.8319c0-0.046-0.000943-0.091,0-0.1362,0.000002-0.113,0.01814-0.2096,0.0227-0.318,0.0011-0.015-0.0012-0.031,0-0.045,0.08745-1.0783,0.46868-1.9748,1.1353-2.7021,0.76097-0.8057,1.7134-1.2414,2.8837-1.2716,1.1457,0.032,2.1016,0.4675,2.861,1.2716,0.76732,0.8371,1.1581,1.8996,1.158,3.2017v9.832c0.000018,0.5114,0.15134,0.9455,0.47684,1.2942,0.1729,0.1729,0.38116,0.2822,0.61308,0.3634,0.10824,0.038,0.2195,0.073,0.3406,0.091,0.11771,0.021,0.25812,0.045,0.38601,0.045,0.11105,0,0.21467-0.027,0.31789-0.045h0.04542c0.10195-0.021,0.20103-0.055,0.29519-0.091,0.22598-0.079,0.42043-0.1972,0.59037-0.3634,0.0045-0.01,0.01827,0.01,0.0227,0,0.3255-0.3487,0.49953-0.7828,0.49955-1.2942v-9.832c-0.000018-1.3021,0.39072-2.3646,1.158-3.2017,0.76096-0.8057,1.7122-1.2414,2.861-1.2716,1.1601,0.035,2.1277,0.4711,2.8837,1.2716,0.66665,0.7273,1.0479,1.6238,1.1353,2.7021,0.006,0.1231,0.0227,0.2344,0.0227,0.3634,0.000942,0.045,0,0.09,0,0.1362v9.832c-0.000029,0.5114,0.15129,0.9455,0.47684,1.2942,0.08719,0.081,0.17512,0.1434,0.27248,0.2044,0.28338,0.183,0.62072,0.2952,1.0218,0.2952,0.12788,0,0.2456-0.025,0.36331-0.045h0.0227c0.10979-0.021,0.21705-0.052,0.31789-0.091h0.0227c0.2078-0.081,0.39826-0.2052,0.56767-0.3634,0.32552-0.3487,0.47684-0.7827,0.47684-1.2942v-9.9682c-0.000029-2.3717-0.62909-4.2151-1.8847-5.5405-1.2324-1.3253-2.8591-1.9981-4.8819-1.9981-0.31971,0-0.62579,0.014-0.93097,0.045h-0.0227c-0.23542-0.022-0.45976-0.045-0.70391-0.045-1.1858,0-2.2489,0.2383-3.1789,0.7266-0.69057,0.3368-1.2863,0.8058-1.7938,1.3623-0.50969-0.5615-1.0987-1.0233-1.7938-1.3623-0.93008-0.4883-1.9931-0.7266-3.1789-0.7266-0.24415,0-0.49119,0.023-0.72661,0.045-0.30518-0.031-0.63396-0.045-0.95368-0.045z"/>
   <path d="m78.207,1015.6c0-0.5348,0.16275-0.965,0.48828-1.2905,0.34877-0.3255,0.77892-0.4883,1.2905-0.4883,0.53477,0,0.96493,0.1628,1.2905,0.4883,0.32552,0.3255,0.48828,0.7557,0.48829,1.2905v15.52c-0.000008,0.5115-0.16277,0.9417-0.48829,1.2904-0.32553,0.3256-0.75568,0.4884-1.2905,0.4884-0.51155,0-0.9417-0.1628-1.2905-0.4884-0.32553-0.3487-0.48828-0.7789-0.48828-1.2904v-15.52m1.7788-9.4867c0.62778,0,1.1626,0.2325,1.6044,0.6975,0.46503,0.4418,0.69754,0.9766,0.69755,1.6044-0.000009,0.6278-0.23253,1.1742-0.69755,1.6392-0.44178,0.4418-0.97658,0.6627-1.6044,0.6627-0.62781,0-1.1742-0.2209-1.6392-0.6627-0.44178-0.465-0.66267-1.0114-0.66267-1.6392s0.22089-1.1626,0.66267-1.6044c0.46502-0.465,1.0114-0.6975,1.6392-0.6975"/>
   <path d="m102.72,1013.8c-0.26739,0-0.51153,0.055-0.72662,0.1362-0.21507,0.081-0.40489,0.2006-0.56766,0.3633-0.004,0.01,0.003,0.019,0,0.022-0.15672,0.1601-0.28396,0.3353-0.36331,0.545-0.003,0.01,0.003,0.016,0,0.022-0.0764,0.2099-0.13623,0.4448-0.13624,0.7039v8.5604c0,1.8834,0.36912,3.5106,1.0899,4.8592,0.72079,1.3254,1.7184,2.3452,2.9973,3.0427,1.2788,0.6976,2.7326,1.0446,4.337,1.0446,0.18057,0,0.34505-0.013,0.52225-0.022,0.17998,0.01,0.36151,0.022,0.54496,0.022,1.6044,0,3.0581-0.347,4.337-1.0446,1.2788-0.6975,2.2765-1.7173,2.9973-3.0427,0.7208-1.3486,1.0672-2.9758,1.0672-4.8592v-8.5604c0-0.2635-0.0272-0.5125-0.11353-0.7266-0.0792-0.2092-0.20714-0.3853-0.36331-0.545-0.004-0.01,0.004-0.018,0-0.022-0.16276-0.1627-0.35259-0.2819-0.56766-0.3633-0.22003-0.092-0.46354-0.1362-0.72662-0.1362-0.12788,0-0.24705,0.023-0.36331,0.045-0.1177,0.02-0.23305,0.05-0.34059,0.091-0.21508,0.081-0.416,0.2006-0.59038,0.3633-0.16277,0.1627-0.28192,0.3526-0.3633,0.5676-0.003,0.01,0.003,0.016,0,0.022-0.0764,0.2099-0.11354,0.4448-0.11354,0.7039v8.5604c0.00001,1.8834-0.49881,3.315-1.4986,4.2916-0.95685,0.8916-2.2202,1.3728-3.7466,1.4305-0.10836,0-0.21226,0.01-0.31789,0-1.5264-0.057-2.767-0.5389-3.7239-1.4305-0.99982-0.9766-1.4986-2.4082-1.4986-4.2916v-8.5604c0-0.1279-0.00073-0.2698-0.0227-0.386-0.061-0.3618-0.20997-0.6641-0.45413-0.9083-0.17438-0.1628-0.3753-0.2819-0.59037-0.3633h-0.0227c-0.10463-0.044-0.20164-0.069-0.31789-0.091-0.11771-0.021-0.23542-0.045-0.3633-0.045z"/>
   <path d="m125.44,1015.6c0-0.5348,0.16274-0.965,0.48827-1.2905,0.34877-0.3255,0.77892-0.4883,1.2905-0.4883,0.53478,0,0.96495,0.1628,1.2905,0.4883,0.32552,0.3255,0.48826,0.7557,0.48826,1.2905v15.52c-0.00001,0.5115-0.16274,0.9417-0.48826,1.2904-0.32553,0.3256-0.75568,0.4884-1.2905,0.4884-0.51155,0-0.94169-0.1628-1.2905-0.4884-0.32554-0.3487-0.48827-0.7789-0.48827-1.2904v-15.52m1.7787-9.4867c0.62779,0,1.1626,0.2325,1.6044,0.6975,0.46503,0.4418,0.69754,0.9766,0.69755,1.6044-0.00001,0.6278-0.23251,1.1742-0.69755,1.6392-0.44179,0.4418-0.97658,0.6627-1.6044,0.6627-0.62779,0-1.1742-0.2209-1.6392-0.6627-0.44178-0.465-0.66268-1.0114-0.66268-1.6392s0.2209-1.1626,0.66268-1.6044c0.46503-0.465,1.0114-0.6975,1.6392-0.6975"/>
  </g>
 </g>
</svg>
