<svg viewBox="0 0 160 64" xmlns="http://www.w3.org/2000/svg">
  <g stroke="null">
   <path stroke="null" fill="#20a0ff" fill-opacity="0.941176" d="m19.280692,15.414952c-0.547498,0 -0.987668,0.185672 -1.360949,0.558961c-0.373297,0.348403 -0.558961,0.812875 -0.558961,1.385252l0,25.274767c0,0.54749 0.185665,1.011963 0.558961,1.385252c0.373281,0.373289 0.813451,0.558961 1.360949,0.558961c0.572368,0 1.036841,-0.185672 1.385252,-0.558961c0.373281,-0.373289 0.558953,-0.837761 0.558961,-1.385252l0,-25.274767c-0.000008,-0.572376 -0.18568,-1.036849 -0.558961,-1.385252c-0.348411,-0.373289 -0.812883,-0.558961 -1.385252,-0.558961z"/>
   <path stroke="null" fill="#20a0ff" fill-opacity="0.941176" d="m29.85235,24.115304c-0.28618,0 -0.54749,0.058715 -0.777685,0.145816c-0.230195,0.087101 -0.433357,0.214641 -0.607567,0.388843c-0.004355,0.004355 0.004277,0.019932 0,0.024303c-0.167739,0.171223 -0.303912,0.358801 -0.388843,0.583264c-0.002877,0.007077 0.0028,0.017202 0,0.024303c-0.081766,0.22472 -0.145808,0.476099 -0.145816,0.753382l0,9.162103c0,2.01576 0.395064,3.757386 1.166528,5.200769c0.771456,1.418498 1.839218,2.509979 3.207951,3.256556c1.368718,0.746578 2.924672,1.117922 4.641808,1.117922c0.193255,0 0.369307,-0.014099 0.558961,-0.024303c0.192633,0.010538 0.386914,0.024303 0.583264,0.024303c1.717137,0 3.27309,-0.371345 4.641808,-1.117922c1.368734,-0.746578 2.436495,-1.838059 3.207951,-3.256556c0.771464,-1.443384 1.142225,-3.185009 1.142225,-5.200769l0,-9.162103c0,-0.281903 -0.02914,-0.548564 -0.121513,-0.777685c-0.084729,-0.223927 -0.221702,-0.412321 -0.388843,-0.583264c-0.004666,-0.004822 0.004744,-0.019559 0,-0.024303c-0.174209,-0.174201 -0.377372,-0.301742 -0.607567,-0.388843c-0.235491,-0.098727 -0.496116,-0.145816 -0.777685,-0.145816c-0.136873,0 -0.264413,0.025275 -0.388843,0.048605c-0.125985,0.021775 -0.249443,0.05366 -0.36454,0.097211c-0.230195,0.087101 -0.445233,0.214641 -0.631869,0.388843c-0.174209,0.174201 -0.301742,0.377372 -0.388843,0.607567c-0.002644,0.006221 0.002566,0.018058 0,0.024303c-0.081766,0.22472 -0.121521,0.476099 -0.121513,0.753382l0,9.162103c0.000008,2.01576 -0.533873,3.547994 -1.603976,4.593203c-1.024095,0.954282 -2.376302,1.469304 -4.009939,1.531068c-0.115976,0 -0.227177,0.004277 -0.340237,0c-1.633636,-0.061764 -2.961534,-0.576786 -3.985636,-1.531068c-1.070103,-1.045209 -1.603983,-2.577443 -1.603976,-4.593203l0,-9.162103c0,-0.136873 -0.000933,-0.288716 -0.024303,-0.413145c-0.065318,-0.387287 -0.224735,-0.710804 -0.486053,-0.972106c-0.186637,-0.174201 -0.401674,-0.301742 -0.631869,-0.388843c-0.007155,-0.002722 -0.017094,0.002644 -0.024303,0c-0.111987,-0.046661 -0.215808,-0.07388 -0.340237,-0.097211c-0.125985,-0.021775 -0.251962,-0.048605 -0.388843,-0.048605z"/>
   <path stroke="null" fill="#20a0ff" fill-opacity="0.941176" d="m61.032663,23.969488c-2.165052,0 -3.906087,0.720136 -5.225072,2.138634c-1.343809,1.418498 -2.01709,3.391485 -2.017121,5.929849l0,10.668868c0.000031,0.54749 0.186287,1.011963 0.534659,1.385252c0.087109,0.087101 0.16623,0.153398 0.267329,0.218724c0.005522,0.003577 0.018742,-0.0035 0.024303,0c0.299883,0.188581 0.672534,0.315935 1.09362,0.315935c0.547521,0 0.987691,-0.186256 1.360949,-0.534659c0.348434,-0.373289 0.53469,-0.837761 0.534659,-1.385252l0,-10.523052c0,-0.049655 -0.001011,-0.096791 0,-0.145816c0,-0.120782 0.019419,-0.224183 0.024303,-0.340237c0.001167,-0.016184 -0.001322,-0.032499 0,-0.048605c0.093602,-1.154054 0.50163,-2.113655 1.215133,-2.892017c0.814462,-0.862383 1.833836,-1.328691 3.086438,-1.360949c1.226207,0.033876 2.249345,0.500324 3.062135,1.360949c0.821259,0.895893 1.239451,2.033063 1.239436,3.426675l0,10.523052c0.000016,0.54749 0.161976,1.011963 0.510356,1.385252c0.18505,0.185042 0.40795,0.302076 0.656172,0.388843c0.115852,0.040494 0.234923,0.078126 0.36454,0.097211c0.125985,0.021775 0.276265,0.048605 0.413145,0.048605c0.118854,-0.002333 0.229759,-0.029513 0.340237,-0.048605c0.016098,-0.002333 0.032717,0.002644 0.048605,0c0.109117,-0.021441 0.215162,-0.059081 0.315935,-0.097211c0.24186,-0.084542 0.449984,-0.210994 0.631869,-0.388843c0.004822,-0.004666 0.019559,0.004744 0.024303,0c0.34838,-0.373289 0.534643,-0.837761 0.534659,-1.385252l0,-10.523052c-0.000016,-1.393612 0.418177,-2.530782 1.239436,-3.426675c0.814446,-0.862383 1.832584,-1.328691 3.062135,-1.360949c1.241668,0.037391 2.277249,0.50415 3.086438,1.360949c0.713503,0.778362 1.121539,1.737963 1.215133,2.892017c0.006377,0.131787 0.024303,0.250889 0.024303,0.388843c0.001011,0.049025 0,0.096161 0,0.145816l0,10.523052c-0.000031,0.54749 0.161922,1.011963 0.510356,1.385252c0.093314,0.087101 0.18743,0.153398 0.291632,0.218724c0.303297,0.195977 0.664345,0.315935 1.09362,0.315935c0.136873,0 0.262858,-0.02683 0.388843,-0.048605c0.007544,-0.001167 0.016814,0.001244 0.024303,0c0.117508,-0.02169 0.232302,-0.056374 0.340237,-0.097211c0.007232,-0.002644 0.01714,0.002722 0.024303,0c0.22241,-0.087031 0.426257,-0.219618 0.607567,-0.388843c0.348403,-0.373289 0.510356,-0.837761 0.510356,-1.385252l0,-10.668868c-0.000031,-2.538364 -0.673312,-4.511351 -2.017121,-5.929849c-1.318985,-1.418498 -3.06002,-2.138634 -5.225072,-2.138634c-0.342189,0 -0.669781,0.015943 -0.996409,0.048605c-0.008181,0.000855 -0.016129,-0.000855 -0.024303,0c-0.25197,-0.023331 -0.49208,-0.048605 -0.753382,-0.048605c-1.269167,0 -2.40692,0.255081 -3.402372,0.777685c-0.739104,0.360543 -1.376666,0.862554 -1.91991,1.45816c-0.545523,-0.601088 -1.175938,-1.095237 -1.91991,-1.45816c-0.995453,-0.522604 -2.133206,-0.777685 -3.402372,-0.777685c-0.261302,0 -0.525715,0.025275 -0.777685,0.048605c-0.326628,-0.032663 -0.678522,-0.048605 -1.020712,-0.048605z"/>
   <path stroke="null" fill="#20a0ff" fill-opacity="0.941176" d="m89.165422,26.06303c0,-0.572376 0.174194,-1.032766 0.522604,-1.381169c0.373281,-0.348403 0.833671,-0.522604 1.381169,-0.522604c0.572368,0 1.032758,0.174201 1.381169,0.522604c0.348395,0.348403 0.522597,0.808793 0.522604,1.381169l0,16.611354c-0.000008,0.54749 -0.174209,1.00788 -0.522604,1.381169c-0.348411,0.348403 -0.8088,0.522604 -1.381169,0.522604c-0.547498,0 -1.007888,-0.174201 -1.381169,-0.522604c-0.348411,-0.373289 -0.522604,-0.833678 -0.522604,-1.381169l0,-16.611354m1.903773,-10.153457c0.671912,0 1.244288,0.248859 1.717129,0.746578c0.497711,0.472833 0.74657,1.045209 0.746578,1.717129c-0.000008,0.67192 -0.248867,1.256739 -0.746578,1.754458c-0.47284,0.472833 -1.045217,0.709249 -1.717129,0.709249c-0.671928,0 -1.256747,-0.236416 -1.754458,-0.709249c-0.472833,-0.497718 -0.709249,-1.082538 -0.709249,-1.754458c0,-0.67192 0.236416,-1.244296 0.709249,-1.717129c0.497711,-0.497718 1.08253,-0.746578 1.754458,-0.746578"/>
   <g stroke="null">
    <path stroke="null" fill="#20a0ff" fill-opacity="0.941176" d="m111.402356,19.834948c0,-0.504331 0.164449,-0.909989 0.493368,-1.216974c0.328905,-0.328912 0.734563,-0.493368 1.216974,-0.493368c0.504325,0 0.909983,0.164456 1.216974,0.493368c0.328905,0.306984 0.493361,0.712642 0.493368,1.216974l0,15.360182c-0.000007,1.162155 0.306978,2.203709 0.920953,3.124662c0.635889,0.920953 1.502024,1.644559 2.598403,2.170818c1.118286,0.504331 2.390079,0.756497 3.815377,0.756497c1.359489,0 2.576462,-0.252166 3.650921,-0.756497c1.074425,-0.526259 1.907668,-1.249865 2.49973,-2.170818c0.613948,-0.920953 0.920933,-1.962507 0.920953,-3.124662l0,-15.360182c-0.000021,-0.504331 0.164435,-0.909989 0.493368,-1.216974c0.328891,-0.328912 0.734549,-0.493368 1.216974,-0.493368c0.482383,0 0.877078,0.164456 1.184083,0.493368c0.328884,0.306984 0.49334,0.712642 0.493368,1.216974l0,15.360182c-0.000027,1.754196 -0.44954,3.332973 -1.348538,4.73633c-0.877119,1.38143 -2.11602,2.466839 -3.716704,3.256227c-1.578797,0.767461 -3.376842,1.151191 -5.394154,1.151191c-2.083122,0 -3.946949,-0.38373 -5.591501,-1.151191c-1.622639,-0.789388 -2.894431,-1.874797 -3.815377,-3.256227c-0.899033,-1.38143 -1.348538,-2.960206 -1.348538,-4.73633l0,-15.360182"/>
    <path stroke="null" fill="#20a0ff" fill-opacity="0.941176" d="m139.218532,19.834948c0,-0.504331 0.164449,-0.909989 0.493368,-1.216974c0.328905,-0.328912 0.734563,-0.493368 1.216974,-0.493368c0.504325,0 0.909983,0.164456 1.216974,0.493368c0.328905,0.306984 0.493361,0.712642 0.493368,1.216974l0,22.26733c-0.000007,0.482404 -0.164463,0.888062 -0.493368,1.216974c-0.306991,0.328912 -0.712649,0.493368 -1.216974,0.493368c-0.482411,0 -0.888069,-0.164456 -1.216974,-0.493368c-0.328919,-0.328912 -0.493368,-0.73457 -0.493368,-1.216974l0,-22.26733"/>
   </g>
  </g>
</svg>